<?xml version="1.0" standalone="no"?>
<!DOCTYPE svg PUBLIC "-//W3C//DTD SVG 20010904//EN"
 "http://www.w3.org/TR/2001/REC-SVG-20010904/DTD/svg10.dtd">
<svg version="1.0" xmlns="http://www.w3.org/2000/svg"
 width="300.000000pt" height="295.000000pt" viewBox="0 0 300.000000 295.000000"
 preserveAspectRatio="xMidYMid meet">
<metadata>
Created by potrace 1.10, written by Peter Selinger 2001-2011
</metadata>
<g transform="translate(0.000000,295.000000) scale(0.050000,-0.050000)"
fill="#000000" stroke="none">
<path d="M4003 5049 c-453 -98 -867 -491 -1050 -995 -10 -29 -39 3 -136 148
-520 776 -1294 989 -1797 495 -715 -704 -29 -2337 1622 -3859 331 -306 349
-305 719 42 1283 1209 1940 2296 1916 3170 l-7 240 -96 195 c-225 460 -668
673 -1171 564z m553 -365 c297 -114 444 -382 444 -810 0 -396 -428 -1240 -901
-1777 -160 -182 -1089 -1097 -1113 -1097 -110 0 -1103 1052 -1403 1486 -216
312 -491 911 -554 1208 -181 859 604 1306 1223 696 240 -237 530 -716 598
-990 108 -429 306 -232 381 380 44 356 454 812 849 943 84 27 361 5 476 -39z"/>
</g>
</svg>
