 <svg  version="1.0" xmlns="http://www.w3.org/2000/svg"  width="517.000000pt" height="621.000000pt" viewBox="0 0 517.000000 621.000000"  preserveAspectRatio="xMidYMid meet">  <g transform="translate(0.000000,621.000000) scale(0.100000,-0.100000)" fill="#d71414" stroke="none"> <path d="M2055 6174 c-5 -1 -31 -5 -56 -9 -28 -3 -73 -22 -112 -45 -94 -57 -154 -78 -310 -110 -115 -24 -158 -38 -250 -83 -71 -35 -140 -61 -190 -71 -86 -17 -122 -33 -154 -68 -55 -59 -68 -168 -33 -278 11 -34 20 -66 20 -70 0 -4 -33 -10 -74 -13 -92 -8 -243 -56 -315 -99 -76 -47 -105 -93 -139 -223 -33 -125 -48 -160 -99 -216 -48 -53 -81 -69 -141 -69 -27 0 -51 -2 -54 -6 -3 -3 0 -25 7 -48 10 -33 11 -62 3 -122 -18 -142 -20 -133 46 -177 110 -74 136 -108 205 -272 67 -161 116 -250 165 -304 39 -42 140 -91 189 -91 20 0 37 -5 37 -11 0 -6 -15 -29 -34 -51 -35 -40 -123 -208 -151 -287 -8 -24 -15 -62 -15 -84 0 -37 6 -46 68 -106 73 -70 105 -132 122 -235 4 -30 15 -55 26 -63 21 -15 108 -43 136 -43 10 0 32 -13 50 -30 l33 -30 -35 -26 c-98 -76 -245 -266 -319 -411 -57 -113 -65 -281 -26 -566 33 -241 83 -489 105 -511 5 -5 35 20 69 56 69 74 153 134 326 235 242 140 366 228 489 343 80 75 179 204 196 255 6 19 15 35 19 35 12 0 87 -112 123 -185 19 -39 48 -108 63 -154 28 -86 30 -138 9 -271 -9 -53 -24 -51 -24 2 0 25 -4 38 -9 33 -23 -25 -42 -123 -51 -260 -5 -83 -16 -175 -24 -205 -18 -68 -53 -150 -63 -150 -7 0 -92 115 -124 167 -8 13 -19 23 -26 23 -19 0 -16 -76 8 -215 30 -174 37 -228 32 -242 -4 -10 14 -13 69 -13 l74 0 81 167 c81 168 128 295 158 428 31 137 97 351 130 422 52 112 189 242 274 259 55 11 21 27 -45 21 -74 -5 -149 -38 -212 -92 -70 -60 -69 -35 3 60 142 190 230 281 348 365 l48 34 57 -28 c31 -16 118 -65 192 -110 74 -46 173 -105 218 -132 77 -45 133 -88 346 -261 132 -108 214 -148 436 -217 119 -36 220 -89 292 -151 23 -19 45 -32 49 -28 7 9 -28 237 -72 463 -78 403 -183 604 -400 765 -157 117 -290 184 -402 200 -59 9 -57 29 4 33 51 4 69 16 69 46 0 40 31 66 142 121 132 67 188 103 250 167 44 46 64 81 137 242 23 50 49 86 93 128 l60 59 -7 57 c-13 110 -11 127 27 189 24 39 55 72 97 101 60 43 61 45 61 90 0 72 -31 124 -111 183 -85 64 -103 92 -127 200 -41 185 -106 271 -257 340 l-94 43 -37 96 c-20 52 -40 124 -45 160 -11 87 -21 128 -59 235 -28 79 -31 99 -27 165 3 47 13 93 27 124 44 96 -12 123 -144 70 l-65 -26 -43 26 c-24 13 -68 28 -98 32 -65 8 -96 22 -130 59 -39 43 -80 55 -181 55 -83 0 -95 3 -125 25 -26 20 -35 37 -44 80 -19 90 -43 92 -165 14 -63 -39 -70 -41 -124 -36 -38 3 -90 20 -156 50 -123 56 -252 92 -290 81z m150 -53 c33 -11 103 -38 155 -60 52 -22 107 -41 122 -41 15 0 29 -4 32 -8 3 -5 -42 -39 -100 -77 -58 -37 -119 -85 -136 -106 l-31 -39 -93 0 c-69 0 -111 -6 -159 -21 -64 -21 -66 -21 -122 -4 -32 10 -79 20 -106 22 -47 5 -48 4 -106 -56 -67 -69 -75 -74 -202 -97 -126 -22 -167 -43 -244 -125 -67 -72 -107 -139 -120 -199 -15 -76 -16 -75 -57 31 -69 180 -81 221 -82 294 -1 121 49 177 179 200 51 9 109 29 173 60 112 55 146 66 302 96 131 25 190 46 274 96 32 20 77 42 100 49 52 18 142 11 221 -15z m560 -48 c17 -108 57 -135 212 -143 l112 -5 38 -39 c44 -46 88 -66 140 -66 21 0 59 -11 85 -25 26 -14 54 -25 63 -25 9 0 42 11 75 25 33 14 74 25 91 25 30 0 31 -2 26 -32 -3 -18 -13 -53 -23 -78 -31 -77 -24 -166 23 -295 23 -63 43 -139 47 -177 4 -42 25 -118 55 -201 108 -294 91 -393 -99 -586 -102 -105 -309 -286 -317 -277 -3 2 9 24 25 48 73 107 83 189 38 328 -54 170 -117 250 -197 250 -99 0 -149 -58 -149 -174 0 -53 -38 -209 -56 -232 -13 -17 -14 -6 -10 106 4 117 7 130 39 200 74 159 101 270 102 415 0 84 -4 117 -17 140 -33 61 -133 169 -175 189 -23 12 -42 27 -43 35 0 23 39 79 83 117 37 32 38 34 11 21 -36 -19 -99 -86 -109 -117 -6 -19 -12 -22 -46 -17 -22 3 -46 11 -54 17 -8 7 -35 54 -61 106 -81 166 -180 218 -351 185 -94 -18 -42 31 202 191 233 153 230 152 240 91z m-231 -327 c55 -32 76 -58 120 -151 19 -40 39 -76 45 -80 25 -15 6 -22 -71 -28 -146 -11 -355 -79 -422 -137 -17 -15 -56 -39 -86 -53 -31 -15 -65 -39 -76 -54 -48 -68 -91 -187 -129 -357 -9 -40 -23 -22 -40 50 -23 97 -15 207 21 291 18 39 18 48 0 34 -28 -24 -51 -123 -51 -226 0 -87 3 -107 26 -156 35 -74 87 -130 182 -197 43 -30 102 -76 130 -103 l52 -48 -268 -131 c-170 -83 -275 -129 -287 -125 -10 3 -38 27 -62 53 l-44 47 9 115 c4 63 17 167 28 230 11 63 25 148 31 188 6 39 14 72 18 72 4 0 25 -30 46 -66 54 -93 148 -176 302 -267 73 -43 137 -77 143 -75 5 2 -52 42 -127 88 -160 99 -237 166 -294 255 -85 136 -116 242 -108 370 9 143 107 297 248 389 119 78 153 88 335 97 230 10 275 6 329 -25z m-701 8 c29 -9 56 -20 60 -24 5 -5 -11 -20 -35 -34 -72 -42 -161 -142 -206 -232 -66 -132 -74 -212 -37 -370 17 -68 16 -71 -14 -244 -17 -96 -35 -236 -42 -310 -6 -74 -12 -136 -14 -138 -2 -2 -14 12 -28 30 -24 31 -41 61 -114 202 -17 33 -32 53 -32 43 -1 -9 3 -25 8 -35 5 -9 30 -61 56 -115 72 -151 197 -272 375 -362 130 -66 427 -165 610 -202 47 -10 88 -22 90 -27 6 -12 -114 -62 -214 -88 -62 -16 -101 -19 -180 -16 -118 5 -172 25 -226 83 -19 21 -53 58 -76 82 l-41 43 -114 -2 c-215 -2 -262 19 -335 149 -36 63 -76 105 -156 159 -85 59 -158 195 -158 294 0 72 15 131 50 205 19 40 39 66 55 73 36 17 109 15 152 -3 45 -19 54 -13 17 11 -29 20 -130 26 -172 11 l-22 -8 6 143 c11 248 34 316 142 426 65 66 122 96 202 107 130 18 161 31 227 100 70 72 81 76 166 49z m1029 -316 c59 -27 139 -112 179 -187 19 -38 23 -59 22 -140 -2 -194 -74 -402 -177 -510 -65 -67 -125 -103 -216 -126 -89 -23 -111 -36 -165 -99 -38 -45 -60 -61 -123 -87 -123 -50 -165 -75 -195 -113 -32 -42 -65 -46 -157 -21 -30 8 -89 18 -130 21 -52 5 -90 14 -123 32 -74 40 -74 44 1 77 157 68 761 377 804 412 66 53 173 186 209 259 33 67 52 134 38 134 -5 0 -9 -6 -9 -13 0 -36 -110 -223 -123 -210 -4 3 -7 31 -7 61 0 42 -8 69 -34 121 -19 36 -46 91 -59 122 -39 90 -66 104 -253 135 -71 12 -108 14 -115 7 -7 -7 7 -12 43 -17 29 -3 76 -11 103 -17 161 -33 173 -40 204 -125 11 -28 36 -83 55 -122 20 -38 36 -77 36 -87 0 -19 -46 -65 -127 -127 -38 -29 -74 -45 -130 -60 -43 -11 -98 -29 -123 -40 -84 -39 -240 -44 -240 -8 0 5 3 10 6 10 26 0 221 45 269 62 122 44 206 120 226 205 11 47 -4 127 -31 168 -23 35 -26 26 -5 -15 26 -50 29 -123 7 -172 -27 -61 -120 -148 -97 -90 4 9 12 49 17 88 10 66 9 76 -12 119 -14 28 -39 58 -64 76 -22 16 -52 40 -66 54 -22 22 -34 25 -91 25 -115 0 -162 -53 -163 -185 0 -67 18 -110 66 -161 23 -25 49 -37 119 -55 88 -23 105 -33 72 -43 -111 -33 -166 -26 -233 31 -22 19 -40 31 -40 26 0 -17 65 -70 93 -77 34 -8 26 -26 -10 -26 -15 0 -42 -5 -60 -12 -32 -12 -35 -10 -73 27 -23 22 -43 49 -46 61 -7 29 52 256 86 328 35 76 68 110 128 133 26 9 53 25 60 35 28 39 232 119 350 138 101 16 243 5 304 -22z m-1835 -138 l43 -105 -2 -140 c0 -136 -2 -142 -34 -215 -56 -126 -63 -240 -22 -336 43 -101 102 -166 209 -231 27 -17 42 -36 55 -73 10 -27 22 -50 26 -50 4 0 8 -5 8 -10 0 -6 9 -20 20 -32 10 -12 17 -25 14 -29 -2 -4 0 -10 5 -14 6 -3 26 -33 47 -66 30 -50 34 -63 23 -71 -11 -8 -11 -9 2 -5 20 6 42 -28 34 -54 -4 -10 -10 -19 -14 -19 -4 0 -33 26 -63 58 -40 41 -62 57 -81 57 -15 0 -27 -5 -27 -11 0 -7 6 -11 13 -10 7 0 42 -25 77 -57 l63 -59 -21 -21 -21 -21 -93 32 c-132 44 -148 45 -309 22 -165 -24 -229 -21 -306 16 -92 44 -141 118 -248 371 -53 128 -101 189 -197 255 l-60 40 9 61 c4 34 8 96 7 138 l0 77 47 4 c107 11 190 114 230 287 36 153 90 213 239 265 83 29 209 55 255 53 28 -2 32 -8 72 -107z m1256 -99 c17 -16 15 -18 -26 -39 -24 -12 -54 -22 -65 -22 -12 0 -47 -21 -78 -46 l-57 -46 7 38 c18 102 35 122 111 134 50 9 85 2 108 -19z m70 -56 c63 -43 84 -111 66 -210 -16 -86 -33 -115 -69 -115 -16 0 -31 4 -35 9 -3 5 -19 12 -35 16 -31 7 -40 29 -17 38 14 5 52 78 61 116 6 29 -12 67 -48 100 -33 31 -32 37 2 55 35 20 31 20 75 -9z m-115 -47 c3 -14 -1 -16 -15 -11 -16 6 -16 5 -5 -10 20 -24 12 -72 -13 -72 -16 0 -21 8 -23 43 -4 54 -22 45 -22 -12 0 -37 4 -45 27 -55 22 -10 24 -14 12 -22 -37 -23 -69 6 -69 62 0 24 -4 38 -10 34 -18 -11 -11 -80 11 -104 39 -42 109 1 123 75 11 60 13 62 31 38 30 -40 8 -131 -44 -178 -28 -26 -79 -15 -118 27 -55 58 -67 100 -35 130 73 72 142 97 150 55z m1628 -209 c44 -22 91 -52 106 -66 42 -40 94 -150 113 -238 9 -44 21 -91 26 -105 14 -36 56 -82 111 -118 57 -39 84 -73 99 -122 15 -49 6 -84 -25 -98 -13 -6 -40 -25 -61 -43 -30 -27 -40 -31 -53 -21 -74 53 -133 75 -342 131 -128 34 -301 28 -426 -15 -25 -8 -48 -13 -50 -11 -3 2 26 29 63 59 37 30 120 106 184 169 96 95 122 127 153 190 38 76 38 77 33 175 -3 55 -8 111 -12 127 -4 15 -5 27 -3 27 3 0 41 -18 84 -41z m-1192 -15 c10 -27 -20 -77 -81 -136 -44 -41 -94 -73 -191 -122 -73 -36 -137 -66 -143 -66 -6 0 -25 13 -42 29 -18 16 -47 42 -66 58 l-35 30 55 0 c36 0 78 10 129 30 41 16 101 35 132 42 58 12 142 66 197 125 28 30 37 32 45 10z m561 -128 c33 -35 96 -173 116 -253 6 -23 10 -71 7 -106 -3 -52 -11 -77 -48 -140 -45 -79 -58 -89 -81 -60 -20 24 -89 53 -124 52 -28 -1 -28 -2 11 -14 66 -21 124 -54 124 -72 0 -26 -106 -220 -156 -285 -55 -70 -147 -140 -224 -169 -32 -12 -92 -23 -145 -26 -86 -6 -135 -19 -282 -74 l-62 -23 -88 41 c-115 54 -150 63 -259 63 -72 0 -113 -6 -200 -32 -137 -40 -210 -41 -313 -5 -124 43 -146 84 -85 156 31 37 52 39 169 15 62 -13 140 -17 345 -18 260 0 267 0 365 27 251 70 477 233 614 442 71 109 97 185 110 316 7 63 14 124 17 137 7 32 61 62 113 62 37 0 49 -5 76 -34z m-324 -306 c-6 -143 -8 -158 -31 -190 -57 -82 -229 -243 -298 -279 -20 -11 -43 -8 -140 14 -225 52 -533 147 -520 161 2 1 50 -6 106 -18 119 -23 144 -18 187 38 28 37 73 63 174 101 51 19 82 40 136 93 53 51 82 71 115 80 25 6 60 15 78 20 43 11 118 60 161 104 19 20 35 35 36 33 1 -1 -1 -72 -4 -157z m1004 -270 c108 -31 225 -79 256 -106 14 -13 13 -20 -13 -72 -31 -59 -31 -57 -12 -175 6 -36 3 -41 -63 -110 -49 -52 -76 -90 -92 -132 -84 -213 -175 -304 -416 -416 -70 -33 -93 -54 -104 -95 -5 -21 -15 -30 -39 -35 -17 -3 -34 -4 -37 -1 -3 3 -5 29 -5 58 0 134 -102 284 -279 408 -79 55 -171 103 -209 109 -12 2 -25 6 -28 10 -11 11 -34 8 -34 -4 0 -5 5 -7 10 -4 6 3 23 -3 39 -14 16 -12 34 -21 40 -21 19 0 122 -55 176 -94 153 -110 250 -250 265 -383 l7 -68 -39 -38 c-47 -46 -53 -46 -228 2 -160 43 -212 42 -320 -9 -47 -22 -100 -40 -119 -40 -40 0 -78 37 -130 126 -112 194 -139 223 -231 254 -82 28 -97 36 -110 61 -20 36 -1 49 164 110 44 17 112 45 150 63 103 49 240 90 296 88 14 0 27 3 30 7 5 8 97 51 107 51 3 0 0 -7 -7 -15 -8 -10 -9 -15 -2 -15 6 0 49 43 96 95 82 93 163 214 204 306 25 58 82 94 162 104 30 3 69 11 86 16 50 15 183 25 254 17 36 -3 114 -20 175 -38z m-2430 -146 c41 -13 116 -19 272 -24 7 0 31 -21 55 -46 24 -26 62 -67 84 -90 41 -43 42 -54 3 -34 -14 8 -19 7 -19 -1 0 -9 -30 -10 -117 -5 -113 6 -198 22 -242 45 -26 15 -104 128 -96 141 3 6 1 10 -4 10 -6 0 -11 5 -11 10 0 14 17 12 75 -6z m-197 -236 c74 -28 82 -33 82 -57 0 -39 23 -66 77 -91 26 -12 59 -29 73 -38 14 -9 48 -17 76 -17 42 -1 60 -8 101 -37 27 -20 82 -48 121 -61 40 -14 75 -27 77 -29 3 -2 -26 -10 -63 -18 -37 -7 -83 -23 -102 -34 -19 -12 -53 -30 -74 -41 -41 -20 -186 -150 -186 -166 0 -5 27 17 59 48 72 71 172 131 266 162 102 33 153 36 228 16 36 -9 83 -16 106 -13 39 3 41 2 41 -25 0 -40 41 -74 108 -89 69 -15 115 -54 172 -144 45 -71 48 -91 22 -143 -10 -20 -30 -58 -43 -84 -42 -85 -131 -163 -242 -211 -71 -32 -136 -37 -242 -19 -210 34 -286 12 -311 -92 -11 -49 -14 -49 -70 13 -65 72 -101 88 -219 97 -119 9 -194 43 -265 123 -28 31 -55 64 -60 72 -11 21 41 127 92 185 22 25 38 49 34 52 -3 3 -8 -2 -12 -11 -3 -9 -12 -16 -20 -16 -18 0 -92 -105 -106 -152 -6 -21 -13 -38 -16 -38 -13 0 -121 35 -143 46 -22 11 -30 26 -43 84 -23 105 -61 174 -118 218 -54 40 -63 62 -55 125 7 51 112 264 164 332 38 49 41 50 113 63 216 37 255 36 378 -10z m886 -155 c28 -8 81 -30 120 -50 58 -29 76 -34 110 -29 22 4 45 11 51 16 18 15 166 71 177 68 6 -2 -7 -11 -28 -20 -130 -55 -286 -118 -329 -134 -27 -10 -59 -24 -71 -31 -43 -27 -105 -27 -184 1 -41 15 -115 38 -165 52 -49 14 -108 37 -130 52 l-40 26 30 7 c17 4 66 17 110 29 147 40 250 44 349 13z m379 -633 c30 -56 77 -90 121 -90 16 0 68 18 115 39 87 40 161 61 161 45 -1 -5 -26 -25 -56 -44 -73 -46 -206 -185 -239 -249 -30 -61 -59 -166 -51 -188 4 -10 -27 -48 -94 -117 -55 -55 -111 -117 -126 -136 -52 -70 -94 -140 -98 -166 -7 -35 -13 -40 -21 -15 -8 26 12 96 77 270 27 74 52 150 55 170 l5 36 -64 -65 c-44 -46 -67 -79 -77 -110 -11 -38 -14 -41 -23 -26 -18 32 7 172 46 264 41 97 73 154 134 239 24 35 55 92 69 128 14 36 28 65 31 65 4 0 19 -23 35 -50z m529 -40 c32 -5 89 -17 128 -26 68 -15 72 -15 108 4 l38 20 87 -23 c142 -38 309 -135 442 -257 171 -156 261 -380 340 -847 14 -85 24 -156 21 -158 -2 -2 -21 24 -42 59 -149 249 -413 508 -712 701 -40 26 -76 47 -81 47 -5 0 -15 8 -22 17 -18 22 79 -33 196 -110 119 -79 226 -166 360 -292 134 -126 142 -133 85 -71 -208 224 -393 368 -647 503 -193 102 -320 136 -438 115 -33 -5 -62 -8 -65 -5 -3 3 7 15 23 28 15 13 27 28 27 33 0 24 111 92 185 114 129 38 186 49 245 47 36 -1 65 2 65 7 0 9 -64 11 -162 4 -29 -2 -53 -6 -53 -10 0 -4 -26 -13 -57 -19 -32 -7 -94 -31 -137 -54 -62 -33 -89 -55 -125 -101 -39 -49 -55 -62 -107 -80 -33 -12 -82 -37 -108 -55 -27 -17 -50 -30 -52 -29 -5 5 21 97 39 138 35 80 122 177 237 264 59 45 80 55 100 51 14 -4 51 -10 82 -15z m-1993 -170 c27 -25 37 -42 29 -44 -7 -3 -29 -9 -48 -15 -60 -19 -190 -100 -190 -119 0 -11 3 -13 8 -6 11 18 121 79 194 108 l67 27 42 -21 c29 -15 74 -25 148 -31 58 -5 117 -15 131 -22 23 -11 20 -12 -35 -14 -125 -5 -273 -26 -345 -50 -119 -39 -290 -137 -290 -165 0 -6 8 -4 18 5 30 28 176 104 247 130 61 22 154 39 343 62 53 7 70 -4 32 -21 -11 -5 -58 -44 -105 -88 -148 -135 -251 -279 -367 -511 -132 -265 -179 -397 -194 -539 -4 -37 -10 -63 -14 -59 -9 11 -46 206 -71 378 -50 348 -42 526 30 645 75 125 158 239 227 308 45 45 86 82 91 82 5 0 29 -18 52 -40z m1196 -105 c-52 -105 -75 -187 -75 -274 0 -42 4 -90 9 -107 7 -25 4 -44 -15 -90 -26 -65 -29 -78 -14 -69 18 11 50 82 61 137 15 72 52 148 89 183 16 16 30 25 30 19 0 -5 -22 -63 -49 -129 -26 -66 -53 -136 -59 -155 -14 -42 -42 -195 -42 -230 0 -14 -11 -41 -24 -60 -26 -40 -41 -80 -29 -80 4 0 19 19 33 42 33 54 171 163 239 189 29 11 55 18 57 16 3 -2 -21 -21 -52 -41 -74 -50 -135 -115 -172 -184 -38 -73 -89 -233 -142 -446 -44 -182 -101 -333 -183 -491 -51 -99 -53 -100 -91 -103 l-39 -3 7 33 c4 18 10 49 13 68 5 41 -21 179 -38 194 -9 8 -10 5 -5 -14 14 -53 19 -220 8 -220 -7 0 -12 11 -12 23 0 13 -11 86 -26 162 -14 76 -24 147 -22 159 3 18 6 16 25 -16 29 -49 124 -168 135 -168 4 0 8 9 8 20 0 12 8 33 18 47 37 58 68 217 76 397 3 71 7 131 10 133 3 3 7 -12 11 -33 3 -22 10 -61 15 -87 6 -27 10 -59 10 -73 0 -13 5 -24 11 -24 8 0 10 20 5 69 -5 51 -2 94 13 169 27 134 45 387 38 547 -6 145 -35 278 -87 392 -16 36 -30 67 -30 69 0 2 9 4 20 4 28 0 62 -35 101 -105 37 -66 29 -71 96 70 37 77 87 145 99 132 2 -2 -12 -34 -31 -72z m-94 -68 c-35 -81 -51 -98 -51 -57 0 9 -13 35 -29 58 l-30 40 37 7 c20 3 53 15 72 25 19 10 36 17 37 16 2 -1 -14 -41 -36 -89z m-352 49 c20 -24 25 -240 8 -323 -26 -120 -104 -236 -244 -365 -109 -100 -191 -157 -388 -275 -240 -142 -315 -194 -382 -267 l-56 -60 7 49 c25 180 77 318 214 570 90 166 209 329 333 455 64 65 188 170 202 170 2 0 17 -18 32 -40 40 -58 77 -51 91 18 10 52 47 74 133 80 24 1 43 -3 50 -12z m94 5 c45 -17 98 -137 133 -296 18 -81 31 -315 17 -300 -5 6 -25 35 -45 65 -21 30 -63 82 -95 115 l-57 60 -1 165 c0 91 -4 173 -9 183 -6 13 -4 17 12 17 12 0 32 -4 45 -9z m-413 -36 c0 -3 -18 -16 -40 -30 -93 -59 -250 -227 -375 -402 -32 -46 -60 -83 -62 -83 -7 0 35 65 101 160 99 142 376 403 376 355z m1655 -36 c12 -12 8 -11 -45 6 l-45 15 40 -6 c22 -3 44 -10 50 -15z m-108 -58 c10 -53 52 -166 59 -159 1 2 -11 50 -27 107 -17 56 -28 105 -26 108 9 9 161 -39 222 -69 67 -34 211 -121 289 -176 186 -129 506 -450 506 -508 0 -8 5 -13 12 -11 6 1 27 -20 45 -48 18 -27 50 -72 70 -100 33 -45 59 -105 46 -105 -2 0 -23 15 -45 34 -63 54 -163 101 -298 141 -206 61 -257 92 -547 328 -59 49 -156 116 -215 149 -60 33 -117 72 -129 86 -12 15 -46 78 -76 140 -30 62 -57 111 -59 109 -13 -13 52 -155 98 -216 10 -13 16 -26 14 -28 -2 -3 -37 18 -78 45 -82 55 -178 106 -223 116 -29 7 -29 8 -10 23 32 25 144 74 189 83 23 4 71 8 107 9 l65 1 11 -59z m-334 9 c-28 -16 -54 -34 -58 -40 -3 -5 -13 -10 -21 -10 -26 0 -5 19 54 50 74 38 92 38 25 0z m-73 -80 c9 -6 10 -10 3 -10 -34 0 -209 -168 -318 -305 -9 -11 -6 0 7 25 24 46 263 300 282 300 6 0 18 -5 26 -10z m-625 -365 c51 -74 55 -84 55 -137 0 -63 -14 -77 -25 -25 -21 93 -122 279 -178 326 -10 7 -17 19 -17 25 1 18 106 -102 165 -189z"/> <path d="M1190 4230 c0 -10 12 -37 60 -130 10 -19 27 -42 37 -50 10 -9 31 -31 46 -49 53 -63 36 -25 -19 44 -59 74 -77 101 -80 125 -2 8 -8 16 -13 18 -6 2 -11 12 -11 22 0 10 -4 22 -10 25 -5 3 -10 1 -10 -5z"/> <path d="M1150 4211 c0 -18 12 -41 22 -41 7 0 6 5 -1 13 -6 8 -8 16 -5 19 3 3 1 9 -5 13 -6 3 -11 2 -11 -4z"/> <path d="M1207 4063 c-2 -4 10 -19 27 -32 l31 -25 -25 30 c-14 16 -26 30 -26 32 -1 2 -4 0 -7 -5z"/> <path d="M1210 4006 c0 -15 38 -52 46 -44 3 3 -6 17 -20 31 -15 15 -26 20 -26 13z"/> <path d="M2574 3836 c43 -26 64 -47 79 -78 13 -25 17 -28 17 -13 0 30 -55 92 -87 98 -24 4 -26 3 -9 -7z"/> <path d="M2894 3643 c3 -4 12 -8 19 -9 24 -3 222 -67 232 -74 14 -10 45 -20 45 -15 0 11 -129 67 -195 86 -71 19 -114 25 -101 12z"/> <path d="M2702 3547 c-26 -27 -28 -39 -7 -31 8 4 13 10 10 14 -3 5 3 13 12 19 10 5 15 12 12 15 -3 3 -15 -4 -27 -17z"/> <path d="M2545 3453 c-27 -8 -57 -19 -65 -23 -9 -4 -34 -11 -56 -14 -42 -7 -72 -21 -63 -30 6 -6 135 30 161 44 10 6 26 10 36 10 10 0 27 7 38 15 23 18 13 17 -51 -2z"/> <path d="M1670 3971 c0 -5 9 -12 19 -16 11 -3 36 -17 56 -31 20 -13 35 -19 33 -12 -5 16 -108 73 -108 59z"/> <path d="M1560 3555 c0 -11 30 -37 39 -33 5 2 -2 11 -15 21 -13 10 -24 15 -24 12z"/> <path d="M807 3389 c-32 -38 -54 -69 -50 -68 10 0 117 128 112 133 -2 3 -30 -27 -62 -65z"/> <path d="M1875 3400 c-28 -7 -27 -8 13 -9 23 0 42 4 42 9 0 11 -11 11 -55 0z"/> <path d="M826 3315 c-9 -14 -12 -25 -7 -25 5 0 16 11 25 25 9 14 12 25 7 25 -5 0 -16 -11 -25 -25z"/> <path d="M2290 3267 c0 -3 20 -34 44 -69 24 -35 56 -87 70 -116 15 -29 31 -50 36 -47 10 6 -31 90 -76 155 -31 44 -74 89 -74 77z"/> <path d="M2954 2870 c-133 -69 -235 -155 -276 -233 -26 -52 -16 -59 15 -10 50 76 143 154 297 244 85 51 62 50 -36 -1z"/> <path d="M3030 2873 c-19 -8 -46 -19 -59 -24 -13 -5 -21 -12 -18 -15 6 -7 117 41 117 50 0 7 3 8 -40 -11z"/> <path d="M3475 2852 c9 -9 173 -72 189 -72 3 0 6 4 6 9 0 4 -39 21 -87 36 -49 15 -95 30 -103 33 -10 3 -12 2 -5 -6z"/> <path d="M3271 2803 c13 -16 27 -32 30 -36 8 -10 69 41 69 57 0 7 -3 7 -8 1 -4 -5 -17 -15 -29 -22 -18 -10 -25 -9 -46 7 -36 29 -44 25 -16 -7z"/> <path d="M3186 2770 c42 -32 64 -39 44 -15 -11 13 -66 45 -78 45 -3 0 12 -13 34 -30z"/> <path d="M3593 2763 c-13 -2 -23 -9 -23 -14 0 -11 39 -2 55 12 9 9 7 10 -32 2z"/> <path d="M3363 2730 c11 -7 47 -14 80 -17 70 -6 76 2 7 10 -25 3 -58 8 -75 12 -25 5 -27 5 -12 -5z"/> <path d="M3526 2722 c-3 -6 -3 -13 2 -16 13 -8 145 -37 149 -32 2 2 -26 11 -63 19 -37 9 -70 21 -74 27 -5 8 -10 9 -14 2z"/> <path d="M3290 2669 c-30 -5 -58 -10 -62 -12 -4 -1 83 -2 195 -2 201 0 212 9 22 19 -55 2 -125 1 -155 -5z"/> <path d="M3697 2654 c3 -8 17 -14 32 -14 14 0 42 -4 60 -10 19 -5 30 -6 25 -1 -5 5 -35 16 -66 24 -48 12 -56 13 -51 1z"/> <path d="M3775 2380 c-3 -4 32 -11 78 -15 45 -4 98 -10 117 -15 69 -16 101 -20 96 -11 -14 22 -280 59 -291 41z"/> <path d="M4055 2070 c11 -5 29 -9 40 -9 17 -1 17 1 5 9 -8 5 -26 9 -40 9 -23 0 -23 -1 -5 -9z"/> <path d="M1070 2384 c-109 -31 -233 -93 -290 -145 -48 -43 -40 -43 27 3 69 47 202 106 288 128 43 11 84 25 89 30 16 16 -22 11 -114 -16z"/> <path d="M885 2031 c-41 -10 -104 -44 -139 -75 -44 -39 -24 -42 26 -4 24 19 67 44 96 56 29 13 52 25 52 27 0 3 -1 5 -2 4 -2 -1 -16 -4 -33 -8z"/> <path d="M2001 1258 c0 -9 -4 -25 -7 -35 -5 -17 -5 -17 6 0 6 10 9 25 7 35 -4 15 -5 15 -6 0z"/> <path d="M1500 2468 c0 -74 19 -112 34 -71 4 9 2 21 -4 27 -5 5 -10 27 -10 48 0 21 -4 38 -10 38 -5 0 -10 -19 -10 -42z"/> <path d="M1440 2465 c13 -14 25 -23 28 -21 4 5 -35 46 -45 46 -3 0 4 -11 17 -25z"/> <path d="M1338 2388 c-3 -58 16 -226 28 -236 3 -4 4 13 0 38 -3 25 -7 89 -8 143 -1 105 -15 142 -20 55z"/> <path d="M1556 2391 c5 -6 28 -14 52 -20 51 -11 48 -3 -6 16 -45 15 -60 17 -46 4z"/> <path d="M1510 2320 c0 -27 5 -50 10 -50 6 0 10 23 10 50 0 28 -4 50 -10 50 -5 0 -10 -22 -10 -50z"/> <path d="M1661 2338 c0 -7 4 -22 9 -33 8 -18 9 -17 9 7 1 15 -3 30 -9 33 -5 3 -10 0 -9 -7z"/> <path d="M1691 2205 c-12 -26 -21 -50 -21 -54 0 -4 -8 -18 -17 -31 -27 -38 -67 -128 -49 -110 43 43 127 222 112 238 -2 2 -14 -18 -25 -43z"/> <path d="M1522 2166 c-7 -37 -20 -88 -28 -113 -20 -58 -12 -67 9 -11 22 58 39 142 35 170 -2 13 -9 -7 -16 -46z"/> <path d="M1138 2175 c-13 -22 -35 -326 -23 -313 7 7 37 297 32 312 -2 6 -6 6 -9 1z"/> <path d="M1561 2035 c-18 -19 -28 -35 -21 -35 12 0 60 48 60 61 0 14 -3 11 -39 -26z"/> <path d="M1445 1944 c-9 -14 -25 -34 -36 -45 -10 -10 -14 -19 -8 -19 6 0 30 20 55 45 33 35 39 45 25 45 -10 0 -26 -12 -36 -26z"/> <path d="M1340 1882 c-13 -26 -33 -60 -45 -77 -36 -51 -39 -61 -10 -35 24 22 91 148 82 156 -1 2 -13 -18 -27 -44z"/> <path d="M1225 1848 c-4 -13 -20 -50 -36 -83 -21 -43 -24 -53 -9 -35 21 27 64 130 56 137 -2 3 -7 -6 -11 -19z"/> <path d="M1060 1768 c-13 -46 -28 -89 -33 -95 -6 -9 -6 -13 1 -13 13 0 47 89 57 148 11 67 0 49 -25 -40z"/> <path d="M3271 2516 c-1 -4 12 -47 28 -95 15 -47 38 -122 51 -166 24 -86 33 -109 55 -139 24 -32 28 -11 5 26 -11 20 -36 89 -54 154 -31 107 -83 243 -85 220z"/> <path d="M3479 2368 c5 -12 24 -75 41 -138 28 -99 78 -232 66 -175 -17 82 -95 330 -105 333 -8 3 -9 -3 -2 -20z"/> <path d="M3132 2340 c6 -17 93 -119 106 -124 14 -6 -20 44 -70 102 -26 31 -43 42 -36 22z"/> <path d="M3246 2249 c27 -30 104 -82 104 -70 0 10 -103 91 -116 91 -4 0 1 -10 12 -21z"/> <path d="M3671 2234 c-1 -27 34 -162 65 -249 20 -57 39 -92 81 -154 2 -2 5 -2 8 1 6 6 -28 71 -51 98 -7 8 -17 33 -23 55 -21 82 -63 231 -71 250 -9 20 -9 20 -9 -1z"/> <path d="M3489 2071 c7 -12 19 -25 27 -28 26 -10 22 1 -9 26 -29 24 -30 24 -18 2z"/> <path d="M3901 2033 c-1 -37 57 -208 77 -226 22 -20 32 -21 32 -4 0 7 -9 18 -19 24 -12 8 -29 45 -46 100 -14 48 -30 97 -35 108 -8 19 -9 19 -9 -2z"/> <path d="M3580 2021 c0 -5 7 -16 15 -25 8 -8 15 -19 15 -25 0 -5 5 -13 12 -17 8 -5 9 -2 5 9 -8 20 10 22 32 4 18 -15 71 -39 71 -32 0 2 -29 21 -65 42 -36 20 -65 41 -65 45 0 4 -4 8 -10 8 -5 0 -10 -4 -10 -9z"/> <path d="M3820 1885 c0 -4 67 -35 76 -35 2 0 4 4 4 9 0 5 -14 14 -31 20 -35 12 -49 14 -49 6z"/> <path d="M4120 1765 c0 -4 8 -19 18 -33 10 -15 22 -36 26 -46 3 -10 9 -16 12 -13 7 7 -24 73 -42 88 -8 6 -14 8 -14 4z"/> </g> </svg> 