<?xml version="1.0" standalone="no"?>
<!DOCTYPE svg PUBLIC "-//W3C//DTD SVG 20010904//EN"
 "http://www.w3.org/TR/2001/REC-SVG-20010904/DTD/svg10.dtd">
<svg version="1.0" xmlns="http://www.w3.org/2000/svg"
 width="300.000000pt" height="360.000000pt" viewBox="0 0 300.000000 360.000000"
 preserveAspectRatio="xMidYMid meet">
<metadata>
Created by potrace 1.10, written by Peter Selinger 2001-2011
</metadata>
<g transform="translate(0.000000,360.000000) scale(0.100000,-0.100000)"
fill="#000000" stroke="none">
<path d="M1325 3573 c-11 -3 -51 -22 -90 -43 -49 -27 -102 -45 -175 -60 -64
-13 -132 -35 -174 -56 -38 -19 -99 -42 -135 -50 -70 -16 -94 -32 -117 -76 -18
-35 -18 -114 1 -167 l14 -41 -44 0 c-69 0 -195 -44 -243 -86 -33 -28 -45 -48
-57 -92 -27 -96 -46 -141 -73 -174 -29 -34 -83 -61 -106 -52 -26 10 -36 -4
-24 -36 7 -21 7 -51 0 -98 -12 -75 -21 -59 84 -146 33 -28 50 -57 89 -148 75
-176 113 -222 205 -249 57 -16 56 -14 30 -41 -39 -41 -110 -200 -110 -245 0
-37 5 -46 39 -74 41 -33 81 -108 81 -153 0 -36 32 -64 80 -72 23 -4 51 -15 63
-24 l22 -18 -48 -43 c-76 -66 -180 -219 -207 -303 -27 -83 -2 -371 51 -586
l22 -89 63 58 c36 34 129 99 224 156 234 141 374 260 426 363 11 20 20 39 22
42 11 17 97 -139 126 -227 14 -42 16 -67 10 -120 -5 -38 -10 -58 -12 -46 -2
13 -7 23 -11 23 -15 0 -33 -83 -41 -194 -7 -98 -28 -184 -50 -209 -4 -5 -29
21 -55 58 -65 91 -73 78 -46 -82 11 -70 21 -139 21 -151 0 -35 23 -22 37 21 9
27 10 51 3 89 -15 78 -23 72 -15 -12 4 -41 4 -72 0 -68 -8 8 -47 206 -43 219
2 5 25 -21 51 -57 l48 -66 25 45 c13 25 24 53 24 62 0 9 3 14 8 12 4 -3 7 9 8
26 0 18 4 82 9 142 l9 110 13 -64 c17 -82 24 -89 21 -20 -1 29 6 99 16 153 10
61 17 156 18 250 1 148 1 153 -34 256 -20 58 -34 107 -32 109 9 10 36 -13 62
-54 l28 -45 34 70 c19 39 43 78 54 88 22 19 23 24 -21 -78 -24 -57 -28 -78
-28 -165 0 -65 -5 -108 -13 -123 -8 -13 -11 -26 -9 -29 10 -9 36 42 53 104 10
36 29 76 46 95 20 22 27 26 22 13 -4 -11 -23 -60 -41 -110 -19 -49 -39 -119
-44 -155 -6 -36 -19 -84 -30 -108 -12 -24 -19 -45 -17 -47 2 -3 20 17 40 43
33 43 115 103 163 117 20 6 20 6 1 -7 -11 -7 -42 -33 -68 -57 -67 -61 -95
-126 -154 -362 -33 -133 -69 -231 -133 -356 -17 -35 -27 -63 -21 -63 11 0 88
148 121 233 11 28 33 103 49 167 42 168 77 269 112 322 32 51 110 115 156 128
l27 7 -26 7 c-38 11 -99 -9 -158 -49 -28 -20 -51 -32 -51 -27 0 13 97 132 164
200 78 81 129 116 154 108 11 -4 68 -36 127 -72 59 -36 124 -74 145 -84 42
-21 137 -93 245 -183 74 -62 176 -116 260 -137 74 -19 167 -63 221 -104 26
-20 48 -35 50 -33 2 1 -10 81 -27 177 -65 382 -124 517 -283 644 -70 56 -196
121 -252 132 -56 10 -64 18 -25 24 33 5 43 15 55 52 3 10 47 38 97 64 121 60
196 133 230 223 15 41 42 84 73 118 l49 54 -7 55 c-8 69 14 116 79 169 38 31
45 43 45 72 0 46 -22 79 -84 128 -46 37 -53 47 -68 107 -18 74 -47 141 -75
176 -11 13 -52 40 -92 60 l-74 38 -28 74 c-15 41 -28 91 -28 111 -1 19 -14 75
-31 124 -35 105 -36 109 -11 181 11 30 17 62 14 70 -8 22 -70 21 -115 -2 -25
-13 -31 -12 -65 6 -21 11 -52 20 -69 20 -22 0 -45 11 -74 35 -38 32 -47 35
-106 35 -88 0 -118 17 -133 75 -14 56 -35 59 -101 15 -59 -39 -105 -39 -190 1
-103 49 -187 66 -245 52z m132 -32 c32 -11 85 -31 118 -45 33 -14 71 -26 85
-26 20 0 8 -11 -57 -55 -45 -30 -87 -63 -92 -74 -9 -15 -22 -18 -73 -18 -35 0
-82 -7 -106 -16 -39 -14 -48 -13 -102 3 -68 21 -88 15 -143 -43 -23 -25 -44
-36 -77 -41 -110 -17 -144 -33 -201 -93 -53 -56 -70 -86 -84 -148 -6 -27 -11
-20 -45 75 -51 139 -53 196 -7 245 26 29 43 37 88 45 31 4 87 24 125 43 46 24
106 42 179 57 82 16 128 31 180 59 104 57 125 60 212 32z m391 -55 c14 -55 53
-76 142 -76 57 0 66 -3 101 -35 29 -26 48 -35 74 -35 19 0 51 -9 71 -19 36
-19 36 -19 95 2 75 27 84 19 59 -53 -26 -73 -25 -91 10 -190 17 -46 30 -97 30
-114 0 -16 19 -84 42 -150 47 -138 54 -216 24 -276 -18 -35 -241 -261 -277
-281 -17 -8 -15 -2 11 44 17 31 30 68 30 88 0 68 -49 199 -93 247 -15 16 -32
22 -64 22 -62 0 -89 -29 -98 -106 -14 -134 -51 -203 -40 -76 4 51 15 87 47
150 34 69 42 98 51 178 8 81 7 101 -8 139 -19 51 -112 155 -138 155 -36 0 -5
57 52 96 20 13 29 24 22 24 -22 0 -79 -48 -96 -80 -13 -24 -19 -27 -42 -21
-21 5 -37 23 -63 73 -44 83 -55 95 -104 120 -33 17 -51 19 -104 15 -59 -6 -63
-5 -50 10 17 21 278 193 293 193 6 0 16 -20 23 -44z m-611 -197 l28 -11 -25
-16 c-123 -82 -203 -240 -178 -354 19 -90 19 -125 5 -198 -9 -41 -18 -109 -22
-150 -3 -41 -8 -95 -11 -120 l-6 -44 -24 39 c-23 37 -25 47 -21 150 2 61 9
125 15 143 6 17 7 32 2 32 -14 0 -30 -68 -37 -163 -6 -92 -12 -98 -33 -32 -7
22 -15 34 -18 27 -2 -7 17 -55 42 -106 37 -76 57 -105 108 -151 101 -91 281
-169 522 -226 l97 -23 -48 -22 c-102 -44 -232 -59 -307 -34 -22 7 -55 33 -85
68 l-50 57 -98 1 c-130 2 -159 15 -204 89 -21 37 -57 76 -94 105 -114 89 -147
213 -87 331 35 70 73 83 145 51 52 -23 55 -12 5 14 -21 11 -47 15 -80 12 l-48
-5 0 46 c0 83 19 209 35 242 22 41 92 117 124 134 15 7 60 18 101 25 69 12 78
16 124 62 52 52 57 53 123 27z m444 6 c30 -16 89 -88 89 -110 0 -7 9 -24 20
-37 l19 -25 -72 -5 c-89 -7 -195 -41 -260 -85 -27 -18 -52 -33 -57 -33 -39 0
-109 -117 -131 -219 -17 -77 -25 -81 -39 -21 -14 58 -10 97 20 190 19 60 19
67 5 109 -9 25 -23 55 -32 66 -16 20 -16 20 -8 0 29 -75 34 -93 35 -116 0 -15
-9 -47 -20 -71 -11 -25 -22 -69 -26 -100 -12 -106 27 -170 172 -279 l98 -73
-182 -88 -183 -88 -34 27 c-34 28 -35 29 -35 103 1 41 11 135 23 209 l23 135
27 -46 c45 -78 121 -136 321 -246 5 -3 6 0 3 5 -4 6 -53 39 -109 73 -123 76
-178 132 -226 229 -33 67 -37 82 -37 155 0 73 3 87 34 144 39 71 109 139 179
174 36 18 71 24 152 29 182 10 200 9 231 -6z m216 -206 c37 -14 79 -54 114
-108 25 -38 29 -55 29 -113 0 -208 -109 -387 -257 -419 -49 -11 -67 -21 -112
-66 -29 -29 -58 -53 -65 -53 -25 0 -135 -60 -145 -79 -16 -29 -41 -33 -112
-16 -35 8 -79 15 -98 15 -18 0 -51 10 -72 22 l-38 21 261 129 c274 135 309
146 357 111 18 -12 23 -13 19 -2 -2 7 -20 18 -39 23 -46 13 -46 12 -8 43 47
40 149 181 149 206 0 15 -11 3 -37 -38 l-38 -60 -6 40 c-3 22 -20 69 -37 105
-52 105 -37 123 20 24 33 -59 48 -67 24 -13 -19 43 -47 77 -66 81 -8 2 -23 11
-34 20 -18 17 -59 27 -175 45 l-55 8 57 28 c31 15 80 34 109 41 63 17 215 20
255 5z m-1214 -97 c23 -56 27 -83 27 -164 0 -86 -3 -103 -30 -160 -31 -66 -38
-125 -20 -174 14 -35 8 -39 -30 -19 -38 20 -119 45 -140 44 -8 0 21 -13 65
-28 91 -32 126 -49 139 -70 5 -8 26 -33 46 -55 21 -23 41 -52 45 -66 14 -46
54 -115 90 -155 20 -22 32 -31 26 -20 -5 11 -19 30 -31 43 -19 20 -80 132 -80
147 0 3 10 -1 23 -9 12 -9 31 -38 42 -67 11 -28 27 -56 37 -63 21 -15 73 -124
64 -134 -4 -4 -23 10 -42 30 -19 21 -38 37 -42 37 -21 -3 -32 2 -26 13 4 7 3
8 -5 4 -6 -4 -20 -2 -29 5 -9 8 -6 1 7 -13 13 -15 27 -26 30 -25 4 1 26 -15
50 -35 29 -24 41 -42 38 -53 -8 -20 -16 -19 -77 5 -58 23 -127 25 -245 8 -171
-24 -228 20 -325 255 -36 87 -65 126 -125 169 l-40 30 0 94 c0 91 1 94 23 94
65 0 123 62 153 163 32 110 39 125 74 156 44 39 162 78 241 80 l41 1 26 -68z
m901 -13 c70 -12 105 -27 117 -49 36 -66 80 -173 76 -183 -11 -30 -118 -98
-183 -118 -164 -49 -183 -53 -212 -39 -26 12 -23 13 59 30 148 30 235 83 259
156 14 40 -1 101 -31 136 -20 22 -19 21 1 -15 29 -50 23 -113 -15 -163 -28
-37 -45 -41 -26 -6 6 12 11 42 11 68 0 48 -14 68 -105 143 -39 31 -109 25
-142 -13 -32 -37 -40 -107 -18 -156 23 -51 40 -66 95 -80 75 -19 77 -20 60
-30 -8 -6 -36 -10 -62 -10 -39 0 -54 6 -83 31 -19 17 -35 27 -35 22 0 -11 37
-46 64 -60 15 -8 11 -11 -25 -17 -40 -6 -46 -4 -70 24 l-27 30 15 77 c19 105
59 191 97 214 35 22 92 24 180 8z m-57 -54 c3 -10 -41 -35 -63 -35 -6 0 -28
-11 -48 -25 l-36 -24 0 23 c0 13 9 35 21 50 19 24 27 27 72 24 28 -2 52 -7 54
-13z m56 -50 c32 -32 41 -81 26 -140 -14 -57 -36 -70 -79 -49 l-31 16 20 22
c45 49 46 100 2 140 -16 15 -18 21 -9 28 23 14 45 9 71 -17z m-93 -16 c0 -5
-4 -7 -10 -4 -14 9 -13 -8 2 -23 8 -8 8 -15 -2 -26 -16 -20 -33 -10 -27 15 3
10 1 22 -4 25 -5 3 -9 -9 -9 -26 0 -24 6 -33 26 -40 14 -6 27 -10 29 -10 2 0
6 19 10 41 5 29 10 38 16 28 25 -39 -11 -129 -51 -129 -23 0 -77 44 -85 70 -3
11 0 30 7 42 12 22 13 21 18 -22 4 -38 9 -46 29 -48 13 -2 28 2 35 9 8 9 7 10
-8 5 -10 -3 -25 -1 -32 5 -17 14 -18 71 -2 87 15 15 58 16 58 1z m1186 -228
c19 -31 37 -79 45 -119 12 -64 15 -70 86 -138 63 -61 73 -76 73 -105 0 -26 -6
-38 -28 -51 -15 -10 -34 -23 -43 -29 -13 -10 -22 -8 -46 9 -46 33 -179 72
-273 81 -79 7 -159 -1 -233 -25 -11 -4 20 28 71 70 113 95 157 145 190 215 20
44 24 63 19 110 -3 31 -9 66 -13 79 -6 22 -4 21 57 -12 50 -27 71 -45 95 -85z
m-896 69 c0 -38 -79 -109 -172 -156 -48 -24 -93 -44 -100 -44 -7 1 -31 16 -53
35 l-40 35 35 0 c19 0 64 11 100 24 36 14 77 27 92 31 15 3 51 25 80 49 29 25
54 45 56 45 1 1 2 -8 2 -19z m359 -65 c21 -11 37 -34 59 -87 54 -129 54 -180
2 -262 l-30 -47 -31 25 c-23 20 -41 26 -72 25 l-42 -1 38 -9 c39 -9 97 -36 97
-44 0 -3 -18 -40 -39 -83 -78 -155 -168 -224 -316 -241 -44 -5 -111 -21 -150
-35 l-70 -27 -69 32 c-99 46 -171 49 -307 14 -104 -26 -108 -26 -168 -11 -106
27 -132 58 -92 107 18 23 19 23 122 11 146 -17 369 -15 449 3 36 9 107 37 159
62 77 38 110 62 176 127 109 109 155 199 166 323 4 49 8 92 8 96 1 8 58 36 74
37 4 0 21 -7 36 -15z m-215 -327 c-21 -40 -125 -145 -179 -181 l-40 -26 -157
39 c-87 21 -177 48 -200 60 -25 11 -32 18 -18 15 97 -20 107 -19 142 15 18 19
70 50 114 71 51 24 90 49 103 67 21 31 46 43 120 62 26 7 60 27 85 50 l41 39
3 -89 c2 -69 -1 -97 -14 -122z m672 -63 c89 -26 197 -73 191 -84 -33 -58 -39
-88 -28 -130 l12 -44 -45 -46 c-27 -28 -61 -80 -85 -133 -50 -105 -103 -156
-230 -222 -71 -37 -91 -52 -99 -76 -7 -18 -18 -30 -29 -30 -14 0 -18 9 -20 44
-2 70 -45 147 -119 215 -73 67 -222 148 -252 136 -12 -5 2 -13 50 -30 159 -56
287 -189 304 -317 6 -43 4 -49 -22 -73 -32 -28 -33 -28 -159 4 -107 27 -132
26 -210 -10 -40 -18 -73 -28 -85 -24 -23 7 -54 47 -103 130 -45 76 -81 110
-134 126 -24 6 -51 21 -60 31 -17 19 -17 20 1 34 11 7 40 21 65 30 25 9 89 35
141 57 68 28 108 39 142 38 26 0 50 4 53 9 15 24 139 -5 237 -57 70 -37 72
-38 64 -24 -13 21 -140 78 -199 91 -32 6 -57 13 -55 14 2 1 12 8 22 16 13 10
17 10 12 3 -4 -7 -3 -13 2 -13 13 0 123 126 147 167 10 18 22 30 26 27 6 -4
28 42 35 75 6 32 43 52 129 70 125 27 196 26 301 -4z m-1567 -110 c39 -8 89
-26 112 -41 22 -14 43 -24 45 -21 2 2 -12 12 -31 23 -39 21 -45 34 -14 34 31
0 52 -15 93 -64 36 -44 36 -46 11 -36 -38 14 -44 12 -15 -6 23 -14 20 -15 -55
-10 -82 5 -166 28 -184 50 -13 15 -43 86 -37 86 3 0 36 -7 75 -15z m-175 -146
c37 -15 56 -27 56 -39 0 -21 34 -52 87 -79 23 -11 44 -30 48 -41 3 -11 11 -20
17 -20 7 0 6 5 -2 15 -10 12 -7 15 13 20 18 5 36 -1 67 -24 23 -17 58 -33 76
-37 48 -9 50 -20 5 -28 -21 -3 -68 -22 -102 -42 -62 -34 -149 -109 -149 -127
0 -5 23 14 51 41 60 58 134 102 175 101 16 0 61 -2 99 -5 84 -7 85 1 1 10 -70
6 -78 11 -33 20 22 4 53 0 82 -9 27 -10 58 -14 76 -10 26 6 29 4 29 -19 0 -21
8 -30 35 -41 19 -8 50 -21 68 -29 22 -9 47 -34 70 -69 41 -62 43 -68 23 -105
-7 -15 -20 -40 -27 -57 -35 -76 -157 -155 -240 -156 -24 -1 -87 2 -139 6 -88
7 -97 6 -122 -15 -17 -13 -28 -31 -28 -46 0 -33 -8 -31 -56 17 -39 38 -47 42
-130 53 -49 7 -103 20 -120 29 -34 17 -104 93 -104 111 0 19 41 90 68 119 14
15 21 27 15 27 -17 0 -70 -65 -84 -104 -15 -41 -18 -42 -82 -20 -37 12 -48 22
-53 42 -19 88 -39 129 -81 166 -57 52 -57 79 1 191 72 139 83 151 163 162 113
17 167 15 227 -8z m644 -126 c31 -14 70 -29 85 -32 25 -5 18 -10 -66 -44 -53
-20 -99 -37 -104 -37 -14 0 -207 60 -243 77 l-35 15 25 13 c14 7 50 18 80 24
30 6 64 13 75 15 40 9 127 -6 183 -31z m192 -383 c0 -5 14 -25 31 -45 39 -44
64 -44 144 -5 33 17 71 30 84 30 22 0 19 -4 -20 -28 -99 -64 -183 -180 -192
-264 -3 -28 -19 -53 -78 -116 -41 -44 -92 -109 -113 -144 -35 -59 -38 -61 -32
-27 4 20 26 90 50 155 24 65 42 122 39 127 -7 11 -71 -61 -89 -100 -21 -48
-27 -40 -21 26 5 65 59 190 120 278 19 29 40 68 47 88 11 32 30 49 30 25z
m340 -40 c78 -23 158 -30 185 -18 53 24 185 -28 316 -126 111 -83 170 -169
218 -316 22 -67 65 -266 76 -355 l7 -50 -28 45 c-53 88 -152 206 -235 281 -93
83 -197 164 -204 157 -2 -2 26 -27 63 -55 93 -72 243 -219 278 -273 16 -25 34
-48 40 -52 16 -11 94 -132 94 -147 0 -7 -13 -2 -31 14 -46 38 -91 59 -205 94
-121 38 -184 74 -305 176 -50 42 -107 86 -127 99 -122 77 -331 196 -354 201
-16 4 -28 11 -28 16 0 5 -7 6 -15 3 -23 -9 -18 4 6 17 15 8 19 8 15 0 -10 -15
-6 -14 59 15 71 31 185 45 185 22 0 -22 31 -121 36 -115 2 2 1 15 -4 28 -5 13
-12 41 -16 61 l-7 36 48 -12 c52 -14 154 -63 214 -103 21 -14 43 -22 49 -18
13 8 105 -57 220 -156 54 -46 70 -57 45 -30 -84 90 -256 218 -276 206 -5 -4
-8 -1 -7 6 4 17 -192 116 -259 129 -32 7 -81 9 -111 6 l-54 -6 22 27 c27 35
96 82 129 89 15 3 35 9 46 14 19 8 19 9 -2 9 -41 2 -154 -61 -182 -99 -18 -25
-49 -48 -96 -70 -38 -19 -74 -36 -78 -38 -11 -6 2 46 24 94 20 43 94 121 164
173 46 35 40 34 85 21z m-1310 -114 l29 -24 -75 -36 c-40 -20 -79 -47 -85 -59
l-12 -22 24 22 c14 12 54 36 91 52 64 29 68 30 102 16 20 -9 70 -18 111 -22
94 -8 109 -23 23 -23 -88 0 -166 -14 -239 -44 -60 -24 -162 -86 -154 -94 2 -2
16 5 32 15 67 48 161 83 261 98 56 8 110 15 120 15 25 0 24 -26 -2 -47 -21
-18 -21 -18 -2 5 38 44 -1 21 -66 -40 -151 -142 -314 -439 -355 -644 l-17 -89
-13 60 c-33 163 -55 354 -51 455 4 115 13 139 91 255 37 54 143 175 155 175 2
0 17 -11 32 -24z m755 -86 c-8 -16 -20 -42 -25 -56 l-10 -26 -26 37 c-14 21
-24 38 -22 39 2 1 23 9 48 18 25 8 46 16 48 17 1 0 -4 -12 -13 -29z m-171 -13
c27 -27 61 -125 75 -217 22 -144 20 -194 -6 -137 -6 13 -34 48 -63 80 l-52 57
-1 120 c-2 130 3 141 47 97z m-69 -53 c26 -237 -84 -370 -526 -634 -50 -30
-114 -76 -141 -103 l-50 -47 7 42 c21 124 80 266 177 427 41 68 44 76 26 65
-7 -4 -8 -3 -4 5 4 6 11 9 15 6 5 -2 30 23 56 57 53 67 119 135 180 187 22 18
32 31 22 27 -11 -3 -16 -2 -12 4 11 17 23 11 57 -26 l33 -36 17 22 c10 12 18
27 18 34 0 16 39 33 82 35 l36 1 7 -66z m-383 -96 c-81 -88 -87 -94 -76 -78
27 39 107 130 112 126 2 -3 -14 -24 -36 -48z m892 9 c-16 -11 -63 -54 -104
-96 -41 -42 -68 -67 -61 -56 33 46 175 184 184 178 6 -3 -3 -15 -19 -26z
m-398 -203 c36 -51 44 -69 44 -105 l-1 -44 -23 61 c-33 84 -51 117 -88 161
-30 35 -30 36 -4 13 15 -14 48 -53 72 -86z"/>
<path d="M2413 2323 c-13 -2 -23 -8 -23 -12 0 -7 20 -8 53 -2 4 0 7 6 7 11 0
6 -3 9 -7 9 -5 -1 -18 -4 -30 -6z"/>
<path d="M1727 2004 c18 -14 37 -33 43 -42 9 -16 9 -16 10 1 0 23 -44 67 -67
67 -14 0 -10 -6 14 -26z"/>
<path d="M1798 1833 c-10 -2 -18 -8 -18 -13 0 -5 -8 -11 -17 -13 -10 -2 -5 -3
12 0 16 2 36 10 45 18 14 15 10 17 -22 8z"/>
<path d="M1705 1769 c-16 -5 -41 -10 -55 -13 -37 -6 -84 -26 -77 -32 7 -7 156
36 163 48 3 4 4 8 2 7 -2 0 -16 -5 -33 -10z"/>
<path d="M542 1730 c-24 -28 -41 -50 -38 -50 7 0 67 65 79 86 14 24 3 15 -41
-36z"/>
<path d="M1533 1635 c3 -5 26 -44 52 -85 42 -67 54 -67 19 0 -12 24 -80 106
-71 85z"/>
<path d="M1951 1370 c-79 -43 -133 -92 -159 -141 -13 -24 -16 -35 -7 -24 55
69 152 148 181 148 7 0 11 5 7 10 -3 5 3 7 13 4 11 -4 30 1 44 9 25 15 25 15
1 8 -16 -4 -21 -3 -17 5 11 18 -5 13 -63 -19z"/>
<path d="M2137 1374 c4 -11 140 -11 150 0 3 2 -31 6 -75 8 -56 2 -78 0 -75 -8z"/>
<path d="M2326 1361 c13 -12 114 -44 121 -38 2 3 -10 10 -29 16 -18 5 -48 14
-67 20 -19 6 -30 7 -25 2z"/>
<path d="M2186 1325 l17 -26 23 22 c30 28 30 31 -1 19 -15 -6 -26 -6 -30 0 -4
6 -11 10 -16 10 -5 0 -2 -11 7 -25z"/>
<path d="M2236 1291 c11 -12 144 -34 153 -25 2 2 -3 4 -13 4 -9 0 -15 3 -13 8
3 4 -18 7 -46 7 -29 0 -61 4 -72 9 -16 7 -17 6 -9 -3z"/>
<path d="M2445 1240 c22 -10 51 -19 65 -19 14 0 -1 8 -35 19 -74 24 -82 24
-30 0z"/>
<path d="M2175 1240 c-17 -4 8 -5 55 -2 47 2 87 6 89 8 8 7 -114 2 -144 -6z"/>
<path d="M1930 1161 c0 -19 51 -120 68 -133 8 -7 -2 21 -23 62 -41 83 -45 89
-45 71z"/>
<path d="M2190 1116 c-1 -24 72 -236 85 -246 19 -16 19 -6 0 23 -8 12 -26 63
-40 111 -24 83 -44 133 -45 112z"/>
<path d="M2525 1051 c2 -5 33 -11 67 -15 35 -3 77 -8 93 -11 22 -3 20 -1 -10
9 -47 15 -157 28 -150 17z"/>
<path d="M2325 1019 c11 -48 53 -166 54 -150 1 20 -48 181 -55 181 -3 0 -3
-14 1 -31z"/>
<path d="M2111 992 c19 -21 36 -34 37 -29 2 4 20 -4 39 -19 19 -14 37 -24 39
-21 6 6 -52 48 -71 51 -8 1 -24 14 -35 29 -12 15 -26 27 -32 27 -6 0 5 -17 23
-38z"/>
<path d="M2454 926 c9 -68 47 -180 72 -211 14 -16 22 -22 18 -12 -6 17 -5 18
31 3 58 -25 56 -18 -4 12 -59 29 -60 31 -102 177 -12 43 -18 55 -15 31z"/>
<path d="M2601 818 c-2 -40 53 -168 66 -154 3 3 0 13 -8 22 -7 9 -23 46 -35
83 -12 36 -22 58 -23 49z"/>
<path d="M745 1063 c-86 -18 -245 -98 -245 -123 0 -6 15 0 33 13 47 36 103 62
185 87 83 25 99 39 27 23z"/>
<path d="M539 800 c-32 -17 -69 -50 -56 -50 2 0 31 16 63 35 60 36 55 48 -7
15z"/>
<path d="M1001 1121 c-1 -27 -4 -32 -13 -23 -7 7 -16 12 -21 12 -6 0 2 -11 17
-25 21 -20 27 -33 25 -60 -2 -19 0 -37 4 -41 4 -4 7 12 7 35 0 35 3 42 16 37
41 -16 67 -19 59 -7 -4 7 -9 10 -12 8 -13 -14 -59 26 -69 60 l-12 38 -1 -34z"/>
<path d="M892 1040 c-1 -30 3 -73 7 -95 8 -36 9 -33 9 30 0 39 -4 81 -8 95 -6
19 -8 12 -8 -30z"/>
<path d="M1116 973 c5 -54 2 -69 -19 -103 -13 -22 -26 -37 -29 -34 -4 3 -16
-4 -27 -15 -25 -25 -16 -28 12 -3 19 16 20 16 14 0 -11 -30 0 -20 31 30 31 49
74 174 48 140 -12 -16 -14 -15 -24 15 -9 28 -10 24 -6 -30z"/>
<path d="M1010 894 c-7 -32 -14 -65 -17 -74 -3 -11 -2 -11 6 2 12 18 34 119
27 125 -2 3 -10 -22 -16 -53z"/>
<path d="M748 856 c-5 -27 -7 -74 -7 -105 l1 -56 10 49 c5 27 8 74 6 105 l-3
56 -7 -49z"/>
<path d="M991 783 c-17 -7 -61 -56 -55 -62 2 -2 20 12 39 32 20 21 35 37 33
36 -2 0 -9 -3 -17 -6z"/>
<path d="M701 630 c-7 -23 -10 -44 -8 -47 7 -6 29 65 25 79 -2 6 -10 -8 -17
-32z"/>
</g>
</svg>
